<?xml version="1.0" standalone="no"?>
<!DOCTYPE svg PUBLIC "-//W3C//DTD SVG 20010904//EN"
 "http://www.w3.org/TR/2001/REC-SVG-20010904/DTD/svg10.dtd">
<svg version="1.0" xmlns="http://www.w3.org/2000/svg"
 width="600.000000pt" height="600.000000pt" viewBox="0 0 600.000000 600.000000"
 preserveAspectRatio="xMidYMid meet">
<metadata>
Created by potrace 1.11, written by Peter Selinger 2001-2013
</metadata>
<g transform="translate(0.000000,600.000000) scale(0.100000,-0.100000)"
fill="#000000" stroke="none">
<path d="M4085 5965 c-107 -21 -122 -25 -150 -35 -14 -5 -25 -7 -25 -4 0 4 -7
0 -17 -7 -9 -8 -19 -13 -22 -13 -10 3 -83 -28 -160 -68 -212 -110 -366 -248
-502 -448 -69 -103 -170 -325 -188 -412 0 -5 -1 -9 -2 -10 0 -2 -2 -12 -4 -23
-2 -11 -6 -31 -10 -45 -4 -14 -9 -86 -11 -160 -5 -148 -8 -138 51 -142 15 -1
137 11 160 16 82 17 128 31 194 58 81 34 194 96 199 110 2 4 8 8 14 8 16 0 96
68 183 155 72 71 95 98 130 153 6 9 15 22 20 29 26 33 31 40 45 68 8 17 17 32
20 35 11 11 40 72 40 85 0 7 7 18 15 25 8 7 15 18 15 25 0 7 8 30 17 51 9 22
18 44 19 49 1 6 11 44 23 85 11 41 23 95 28 120 11 68 10 303 -2 306 -5 1 -41
-4 -80 -11z"/>
<path d="M3890 4525 c-36 -7 -68 -11 -72 -9 -4 3 -9 0 -13 -6 -3 -5 -14 -10
-24 -10 -21 0 -219 -64 -270 -87 -18 -8 -39 -16 -45 -18 -6 -1 -22 -7 -36 -12
-125 -53 -260 -101 -305 -110 -92 -18 -236 8 -370 67 -37 16 -184 73 -195 76
-3 0 -18 6 -35 13 -16 7 -37 14 -45 16 -8 2 -31 9 -50 16 -75 26 -64 23 -110
32 -19 4 -46 9 -60 12 -72 16 -225 20 -300 10 -19 -3 -57 -7 -83 -10 -26 -2
-52 -7 -58 -11 -6 -3 -20 -7 -32 -9 -148 -22 -413 -152 -562 -275 -45 -37
-218 -212 -238 -240 -74 -105 -149 -228 -184 -300 -39 -81 -112 -282 -119
-325 -1 -11 -3 -20 -4 -20 -1 0 -3 -7 -5 -15 -1 -8 -10 -51 -20 -95 -17 -82
-19 -94 -31 -230 -14 -149 -8 -454 11 -590 2 -16 6 -50 9 -74 5 -40 19 -120
31 -181 3 -14 7 -36 10 -50 3 -14 7 -36 10 -50 3 -14 8 -36 11 -50 8 -35 10
-43 17 -60 3 -8 8 -28 12 -45 12 -63 89 -295 135 -410 64 -158 155 -360 170
-375 3 -3 16 -27 30 -55 45 -91 195 -326 212 -333 4 -2 8 -8 8 -13 0 -9 25
-48 57 -88 7 -9 39 -50 70 -92 73 -96 154 -188 217 -248 27 -25 57 -54 67 -63
33 -31 133 -95 194 -125 107 -51 236 -70 350 -49 22 3 52 9 67 11 15 3 38 9
52 15 15 5 26 6 26 3 0 -4 5 -2 12 5 7 7 18 12 24 12 7 0 76 27 153 60 113 48
217 86 261 95 3 1 19 4 35 8 17 4 44 10 60 13 17 4 100 7 185 8 139 0 166 -3
264 -28 60 -15 116 -32 125 -36 65 -35 334 -139 376 -145 11 -2 36 -7 55 -11
101 -21 253 -8 363 30 156 55 338 208 489 411 4 6 18 24 31 40 13 17 55 75 93
130 37 55 71 102 74 105 6 6 16 23 61 100 17 30 34 57 38 60 3 3 13 19 22 35
50 96 75 141 84 147 5 4 7 8 3 8 -4 0 6 25 22 55 17 31 30 61 30 68 0 7 5 18
12 25 6 6 17 26 24 44 6 18 32 88 58 156 25 68 46 131 46 141 0 12 -15 24 -45
37 -25 10 -45 22 -45 26 0 4 -5 8 -11 8 -32 0 -214 136 -308 230 -174 173
-311 434 -348 660 -2 14 -7 43 -10 65 -9 53 -10 340 -1 390 4 22 12 63 18 90
7 28 13 55 14 60 11 53 73 210 97 245 9 14 24 41 33 60 45 96 230 307 346 394
30 22 57 44 60 47 3 3 15 11 27 18 21 11 26 29 12 41 -3 3 -18 23 -35 45 -51
70 -242 255 -263 255 -5 0 -11 3 -13 8 -1 4 -32 26 -68 49 -137 87 -310 153
-497 188 -114 22 -375 28 -463 10z"/>
</g>
</svg>
